# Blender v2.82 (sub 1) OBJ File: ''
# www.blender.org
mtllib Car.mtl
o Cube_Cube.001
v -1.000000 0.098498 2.006903
v -1.000000 0.898497 2.006903
v -1.000000 0.898498 1.023570
v -1.000000 0.898498 -1.559764
v -1.000000 0.898498 -1.793097
v -1.000000 0.098498 -1.793097
v 0.900000 0.098497 2.106903
v 0.900000 0.898497 2.106903
v -0.900000 0.898497 2.106903
v -0.900000 0.098497 2.106903
v 0.900000 0.998498 -1.659764
v 0.900000 0.998498 -1.793097
v -0.900000 0.998498 -1.793097
v -0.900000 0.998498 -1.659764
v -0.900000 0.098498 -1.893097
v -0.900000 0.898498 -1.893097
v 0.900000 0.898498 -1.893097
v 0.900000 0.098498 -1.893097
v 1.000000 0.098498 -1.793097
v 1.000000 0.898498 -1.793097
v 1.000000 0.898498 -1.559764
v 1.000000 0.898498 1.023570
v 1.000000 0.898497 2.006903
v 1.000000 0.098498 2.006903
v -0.714851 1.458133 -0.517922
v 0.714851 1.458133 -0.517922
v 0.882559 1.038862 -1.468272
v -0.882559 1.038862 -1.468272
v 0.700000 1.498497 0.540236
v 0.700000 1.498497 -0.326430
v -0.700000 1.498497 -0.326430
v -0.700000 1.498497 0.540236
v -0.900000 0.998497 1.123570
v -0.900000 0.998497 2.006903
v 0.900000 0.998497 2.006903
v 0.900000 0.998497 1.123570
v -0.837139 1.405650 0.588671
v -0.837139 1.405650 -0.403880
v -0.962861 1.091346 -1.116304
v -0.962861 1.091346 0.829638
v 0.726827 1.419137 0.701080
v -0.726827 1.419137 0.701079
v -0.863338 1.077859 0.962726
v 0.863338 1.077859 0.962726
v 0.837139 1.405650 -0.403880
v 0.837139 1.405650 0.588672
v 0.962861 1.091346 0.829638
v 0.962861 1.091346 -1.116304
v -0.900000 -0.001502 -1.793097
v 0.900000 -0.001502 -1.793097
v -0.900000 -0.001503 2.006903
v 0.900000 -0.001503 2.006903
vn -1.0000 0.0000 0.0000
vn 0.0000 0.0000 1.0000
vn 0.0000 1.0000 0.0000
vn 0.0000 0.0000 -1.0000
vn 1.0000 0.0000 0.0000
vn 0.0000 0.9149 -0.4036
vn -0.9285 0.3714 0.0000
vn -0.0000 0.6084 0.7936
vn 0.9285 0.3714 0.0000
vn -0.5774 -0.5774 -0.5774
vn -0.5773 0.5774 -0.5774
vn 0.5774 -0.5774 -0.5774
vn 0.5773 0.5774 -0.5774
vn -0.5774 -0.5773 0.5774
vn 0.5774 -0.5773 0.5774
vn 0.4989 0.8550 -0.1415
vn 0.4438 0.8308 0.3359
vn -0.4438 0.8308 0.3359
vn -0.4989 0.8550 -0.1415
vn 0.6839 0.7019 -0.1990
vn 0.6848 0.6400 0.3486
vn -0.6848 0.6400 0.3486
vn -0.6839 0.7019 -0.1990
vn -0.5773 0.5773 0.5774
vn 0.5773 0.5773 0.5774
vn 0.0000 -0.7071 -0.7071
vn -0.7071 0.0000 -0.7071
vn 0.0000 0.7071 -0.7071
vn 0.7071 0.0000 -0.7071
vn 0.7071 -0.7071 -0.0000
vn 0.7071 0.0000 0.7071
vn 0.0000 -0.7071 0.7071
vn -0.7071 0.0000 0.7071
vn -0.7071 -0.7071 -0.0000
vn -0.7071 0.7071 0.0000
vn 0.7071 0.7071 0.0000
vn 0.9820 0.1891 0.0000
vn -0.9820 0.1891 0.0000
vn 0.0000 0.8968 0.4425
vn 0.0000 0.9785 -0.2063
vn 0.5606 0.8281 0.0000
vn -0.5606 0.8281 0.0000
vn 0.5672 0.7858 -0.2466
vn 0.5929 0.6257 0.5068
vn -0.5929 0.6257 0.5068
vn -0.5672 0.7858 -0.2466
vn 0.0000 0.7071 0.7071
vn 0.0000 -1.0000 -0.0000
usemtl None
s 1
f 1//1 2//1 3//1 4//1 5//1 6//1
f 7//2 8//2 9//2 10//2
f 11//3 12//3 13//3 14//3
f 15//4 16//4 17//4 18//4
f 19//5 20//5 21//5 22//5 23//5 24//5
f 25//6 26//6 27//6 28//6
f 29//3 30//3 31//3 32//3
f 33//3 34//3 35//3 36//3
f 37//7 38//7 39//7 40//7
f 41//8 42//8 43//8 44//8
f 45//9 46//9 47//9 48//9
f 49//10 6//10 15//10
f 5//11 13//11 16//11
f 50//12 18//12 19//12
f 12//13 20//13 17//13
f 51//14 10//14 1//14
f 52//15 24//15 7//15
f 45//16 26//16 30//16
f 46//17 29//17 41//17
f 37//18 42//18 32//18
f 38//19 31//19 25//19
f 11//20 27//20 48//20 21//20
f 22//21 47//21 44//21 36//21
f 3//22 33//22 43//22 40//22
f 14//23 4//23 39//23 28//23
f 9//24 34//24 2//24
f 8//25 23//25 35//25
f 50//26 49//26 15//26 18//26
f 6//27 5//27 16//27 15//27
f 13//28 12//28 17//28 16//28
f 20//29 19//29 18//29 17//29
f 52//30 50//30 19//30 24//30
f 8//31 7//31 24//31 23//31
f 51//32 52//32 7//32 10//32
f 2//33 1//33 10//33 9//33
f 49//34 51//34 1//34 6//34
f 14//35 13//35 5//35 4//35
f 12//36 11//36 21//36 20//36
f 48//37 47//37 22//37 21//37
f 40//38 39//38 4//38 3//38
f 44//39 43//39 33//39 36//39
f 11//40 14//40 28//40 27//40
f 30//41 29//41 46//41 45//41
f 32//42 31//42 38//42 37//42
f 29//39 32//39 42//39 41//39
f 26//40 25//40 31//40 30//40
f 27//43 26//43 45//43 48//43
f 41//44 44//44 47//44 46//44
f 43//45 42//45 37//45 40//45
f 25//46 28//46 39//46 38//46
f 3//35 2//35 34//35 33//35
f 36//36 35//36 23//36 22//36
f 9//47 8//47 35//47 34//47
f 50//48 52//48 51//48 49//48
